<svg xmlns="http://www.w3.org/2000/svg" shape-rendering="geometricPrecision" text-rendering="geometricPrecision" image-rendering="optimizeQuality" fill-rule="evenodd" clip-rule="evenodd" viewBox="0 0 421 511.605"><path fill="#E44B4D" d="M95.705.014h199.094L421 136.548v317.555c0 31.54-25.961 57.502-57.502 57.502H95.705c-31.55 0-57.502-25.873-57.502-57.502V57.515C38.203 25.886 64.076.014 95.705.014z"/><path fill="#CD4445" d="M341.028 133.408h-.019L421 188.771v-52.066h-54.357c-9.458-.15-17.998-1.274-25.615-3.297z"/><path fill="#FBCFD0" d="M294.8 0L421 136.533v.172h-54.357c-45.068-.718-69.33-23.397-71.843-61.384V0z"/><path fill="#CD4445" fill-rule="nonzero" d="M0 431.901V253.404l.028-1.261c.668-16.446 14.333-29.706 30.936-29.706h7.238v50.589h342.975c12.862 0 23.373 10.51 23.373 23.371v135.504c0 12.83-10.543 23.373-23.373 23.373H23.373C10.541 455.274 0 444.75 0 431.901z"/><path fill="#963232" fill-rule="nonzero" d="M143.448 240.364a8.496 8.496 0 01-8.496-8.497 8.496 8.496 0 018.496-8.497h163.176a8.496 8.496 0 018.496 8.497 8.496 8.496 0 01-8.496 8.497H143.448zm0-59.176a8.496 8.496 0 010-16.993h172.304a8.496 8.496 0 110 16.993H143.448z"/><path fill="#fff" fill-rule="nonzero" d="M11.329 276.171v154.728c0 7.793 6.38 14.178 14.179 14.178H380.175c7.799 0 14.178-6.379 14.178-14.178V297.405c0-7.798-6.388-14.178-14.178-14.178H37.892c-12.618-.096-19.586-1.638-26.563-7.056z"/><path fill="#1A1A1A" fill-rule="nonzero" d="M93.955 397.839l3.67-21.62c8.036 2.008 15.263 3.012 21.686 3.012 6.42 0 11.594-.261 15.525-.785v-6.551l-11.792-1.05c-10.657-.961-17.974-3.515-21.947-7.663-3.976-4.149-5.962-10.287-5.962-18.411 0-11.182 2.423-18.867 7.272-23.061 4.849-4.194 13.08-6.29 24.698-6.29 11.619 0 22.102 1.092 31.448 3.276l-3.275 20.964c-8.124-1.31-14.632-1.965-19.524-1.965-4.891 0-9.04.219-12.448.655v6.421l9.434.918c11.442 1.135 19.348 3.864 23.716 8.189 4.369 4.324 6.553 10.329 6.553 18.017 0 5.504-.743 10.153-2.229 13.953-1.484 3.8-3.254 6.684-5.307 8.649-2.053 1.965-4.956 3.472-8.713 4.521-3.755 1.047-7.054 1.681-9.893 1.899-2.838.219-6.617.328-11.333.328-11.357 0-21.883-1.135-31.579-3.406zm124.74-1.574l-11.137 3.015c-14.675 0-24.546-3.757-29.613-11.269-2.62-3.756-4.455-7.971-5.502-12.644-1.049-4.673-1.573-10.33-1.573-16.968 0-14.938 2.796-25.835 8.385-32.692 5.592-6.857 15.637-10.287 30.138-10.287 14.5 0 24.589 3.451 30.267 10.351 5.679 6.902 8.518 17.777 8.518 32.628 0 11.094-2.316 20.047-6.945 26.861l9.435 5.503-6.814 15.067-25.159-4.585v-4.98zm-19.655-17.426h10.878c3.579 0 6.178-.415 7.794-1.246 1.617-.828 2.426-2.729 2.426-5.698v-34.069H209.13c-3.494 0-6.048.415-7.664 1.246-1.616.828-2.426 2.729-2.426 5.699v34.068zm112.688 20.441h-52.414v-81.894h26.206v60.929h26.208v20.965z"/></svg>