<?xml version="1.0" encoding="utf-8"?>
<!-- Generator: Adobe Illustrator 24.0.0, SVG Export Plug-In . SVG Version: 6.00 Build 0)  -->
<svg version="1.1" id="Layer_1" xmlns="http://www.w3.org/2000/svg" xmlns:xlink="http://www.w3.org/1999/xlink" x="0px" y="0px"
	 viewBox="0 0 256 256" style="enable-background:new 0 0 256 256;" xml:space="preserve">
<style type="text/css">
	.st0{fill:#FFB69F;}
	.st1{fill:#72C2E9;}
	.st2{fill:#C2E5FF;}
	.st3{fill:#FC5D3D;}
	.st4{fill:#AFAFAF;}
	.st5{fill:#FFCBC3;}
	.st6{fill:#F0C020;}
	.st7{fill:#F8E5B0;}
	.st8{fill:#EFEFEF;}
	.st9{fill:#EEC21E;}
	.st10{fill:#FFFFFF;}
	.st11{fill:#F1BF21;}
	.st12{fill:#E8A61E;}
	.st13{fill:#7D7B79;}
	.st14{fill:#B34F33;}
	.st15{fill:#F8E5B2;}
	.st16{fill:#C5E5FE;}
	.st17{fill:#4C4944;}
	.st18{fill:#4BA5C8;}
	.st19{fill:#AFAEAF;}
	.st20{fill:#CF941C;}
	.st21{fill:#7C7B7A;}
	.st22{fill:#FAE0E1;}
	.st23{fill:#13BF6D;}
	.st24{fill:#76FFBB;}
	.st25{fill:#F2E1D7;}
	.st26{fill:#878787;}
	.st27{fill:#F9E5AF;}
	.st28{fill:#E8A61F;}
	.st29{fill:none;stroke:#000000;stroke-width:5;stroke-linecap:round;stroke-linejoin:round;stroke-miterlimit:10;}
	.st30{fill:#EFEFF0;}
	.st31{fill:#E8A61B;}
	.st32{fill:#EFEFEE;}
	.st33{fill:#4C4945;}
	.st34{fill:#EA8F7D;}
	.st35{fill:#D6C0B3;}
	.st36{fill:#EEC120;}
</style>
<g>
</g>
<g>
	<path class="st6" d="M116.739,243.085L12.915,139.261c-6.22-6.22-6.22-16.303,0-22.523L116.739,12.914
		c6.22-6.22,16.303-6.22,22.523,0l103.824,103.824c6.22,6.22,6.22,16.303,0,22.523L139.262,243.085
		C133.042,249.304,122.958,249.304,116.739,243.085z"/>
	
		<rect x="59.588" y="59.587" transform="matrix(-0.7071 0.7071 -0.7071 -0.7071 309.0197 127.999)" class="st8" width="136.825" height="136.825"/>
	<path class="st10" d="M126.233,208.132c-0.977-0.977-0.977-2.559,0-3.535l2.96-2.96c0.977-0.977,2.559-0.977,3.535,0
		s0.977,2.559,0,3.535l-2.96,2.96C128.791,209.109,127.209,209.109,126.233,208.132z M136.263,198.102
		c-0.977-0.977-0.977-2.559,0-3.535l32.527-32.527c0.977-0.977,2.559-0.977,3.535,0s0.977,2.559,0,3.535l-32.527,32.527
		C138.822,199.079,137.24,199.079,136.263,198.102z"/>
	<path class="st10" d="M181.04,153.325c-0.977-0.977-0.977-2.559,0-3.535L202.83,128l-76.598-76.598
		c-0.977-0.977-0.977-2.559,0-3.535s2.559-0.977,3.535,0l78.365,78.365c0.977,0.977,0.977,2.559,0,3.535l-23.558,23.558
		C183.599,154.301,182.017,154.301,181.04,153.325z"/>
	<path class="st3" d="M150.292,128v-26.042h-44.583V128H83.417v26.042c12.907,0,76.222,0,89.167,0V128H150.292z"/>
	<path d="M95.81,141.41v0.79c0,1.38,1.12,2.5,2.5,2.5s2.5-1.12,2.5-2.5v-0.79c0-1.38-1.12-2.5-2.5-2.5S95.81,140.03,95.81,141.41z"
		/>
	<path d="M109.451,137.25c-1.381,0-2.5,1.12-2.5,2.5v0.78c0,1.38,1.119,2.5,2.5,2.5c1.38,0,2.5-1.12,2.5-2.5v-0.78
		C111.951,138.37,110.831,137.25,109.451,137.25z"/>
	<path d="M144.8,146.66c1.38,0,2.5-1.13,2.5-2.5v-0.79c0-1.38-1.12-2.5-2.5-2.5s-2.5,1.12-2.5,2.5v0.79
		C142.3,145.53,143.42,146.66,144.8,146.66z"/>
	<path d="M156.281,143.91c1.38,0,2.5-1.12,2.5-2.5v-0.78c0-1.38-1.12-2.5-2.5-2.5c-1.381,0-2.5,1.12-2.5,2.5v0.78
		C153.781,142.79,154.9,143.91,156.281,143.91z"/>
	<path d="M114.42,156.54h0.01c10.026,0,52.273,0,58.15,0c1.392,0,2.5-1.119,2.5-2.5V128c0-1.376-1.103-2.5-2.5-2.5h-19.79v-23.54
		c0-1.376-1.103-2.5-2.5-2.5h-44.58c-1.368,0-2.5,1.111-2.5,2.5v23.54H83.42c-1.375,0-2.5,1.104-2.5,2.5v26.04
		c0,1.371,1.099,2.5,2.5,2.5h11c1.38,0,2.5-1.12,2.5-2.5s-1.12-2.5-2.5-2.5h-8.5V130.5c14.341,0,25.237,0,39.58,0v21.04h-11.08
		c-1.38,0-2.5,1.12-2.5,2.5S113.041,156.54,114.42,156.54z M170.081,130.5v21.04H130.5V130.5
		C144.844,130.5,155.739,130.5,170.081,130.5z M108.21,125.5v-21.04h39.58v21.04H108.21z"/>
	<circle cx="104.42" cy="154.04" r="2.5"/>
	<path d="M128.85,109.16c-1.38,0-2.5,1.12-2.5,2.5v0.79c0,1.369,1.12,2.489,2.5,2.489s2.5-1.12,2.5-2.489v-0.79
		C131.35,110.28,130.23,109.16,128.85,109.16z"/>
	<path d="M138.69,114.439c-1.38,0-2.5,1.12-2.5,2.5v0.79c0,1.38,1.12,2.5,2.5,2.5s2.5-1.12,2.5-2.5v-0.79
		C141.19,115.559,140.07,114.439,138.69,114.439z"/>
	<path d="M69.94,63.24c0.997-0.997,0.952-2.58,0-3.53c-0.939-0.94-2.59-0.94-3.529,0c-0.97,0.948-1.007,2.544,0,3.53
		C67.391,64.241,68.988,64.211,69.94,63.24z"/>
	<path d="M244.85,114.969L141.031,11.149c-7.223-7.221-18.899-7.182-26.061,0l-41.49,41.49c-0.959,0.939-1.016,2.525,0,3.54
		c0.94,0.94,2.59,0.94,3.53,0c0-0.01,0.01-0.01,0.01-0.01l41.49-41.49c5.24-5.24,13.734-5.247,18.98,0l103.829,103.83
		c5.184,5.184,5.302,13.658,0,18.98L137.491,241.319c-5.241,5.241-13.732,5.248-18.98,0L14.68,137.49
		c-5.23-5.23-5.256-13.724,0-18.98l48.19-48.2c0.992-0.993,0.956-2.573,0-3.529c-0.94-0.94-2.59-0.94-3.53,0l-48.19,48.189
		c-7.221,7.203-7.191,18.888,0,26.061l103.82,103.819c7.22,7.22,18.873,7.188,26.061,0L244.85,141.03
		C252.08,133.78,252.033,122.152,244.85,114.969z"/>
	<path d="M29.48,129.769l96.75,96.75c0.946,0.946,2.518,1.003,3.54,0l40.641-40.649c0.98-0.982,0.965-2.565,0-3.53
		c-0.95-0.94-2.591-0.94-3.54,0L128,221.209L34.781,128L128,34.78L221.22,128l-40.2,40.2c-1.001,0.98-0.971,2.578,0,3.529
		c0.94,0.95,2.59,0.95,3.53,0l41.97-41.96c0.963-0.98,0.987-2.533,0-3.54l-96.75-96.75c-0.95-0.939-2.59-0.939-3.54,0l-96.75,96.75
		C28.51,127.209,28.51,128.79,29.48,129.769z"/>
	<path d="M177.48,178.799c0.971-0.97,0.971-2.56,0-3.53c-0.939-0.939-2.59-0.95-3.54,0c-0.968,0.97-0.977,2.553,0,3.53
		C174.965,179.824,176.55,179.751,177.48,178.799z"/>
</g>
</svg>
